G04*
G04 #@! TF.GenerationSoftware,Altium Limited,Altium Designer,19.1.8 (144)*
G04*
G04 Layer_Color=16711935*
%FSLAX43Y43*%
%MOMM*%
G71*
G01*
G75*
G04:AMPARAMS|DCode=17|XSize=2mm|YSize=1.35mm|CornerRadius=0.244mm|HoleSize=0mm|Usage=FLASHONLY|Rotation=0.000|XOffset=0mm|YOffset=0mm|HoleType=Round|Shape=RoundedRectangle|*
%AMROUNDEDRECTD17*
21,1,2.000,0.863,0,0,0.0*
21,1,1.513,1.350,0,0,0.0*
1,1,0.488,0.756,-0.431*
1,1,0.488,-0.756,-0.431*
1,1,0.488,-0.756,0.431*
1,1,0.488,0.756,0.431*
%
%ADD17ROUNDEDRECTD17*%
G04:AMPARAMS|DCode=19|XSize=1.2mm|YSize=1.1mm|CornerRadius=0.213mm|HoleSize=0mm|Usage=FLASHONLY|Rotation=270.000|XOffset=0mm|YOffset=0mm|HoleType=Round|Shape=RoundedRectangle|*
%AMROUNDEDRECTD19*
21,1,1.200,0.675,0,0,270.0*
21,1,0.775,1.100,0,0,270.0*
1,1,0.425,-0.338,-0.388*
1,1,0.425,-0.338,0.388*
1,1,0.425,0.338,0.388*
1,1,0.425,0.338,-0.388*
%
%ADD19ROUNDEDRECTD19*%
%ADD24C,0.200*%
%ADD25C,1.500*%
%ADD26C,2.200*%
%ADD54R,4.000X1.900*%
%ADD55R,3.900X1.900*%
%ADD56R,0.600X1.750*%
%ADD57O,0.600X1.750*%
%ADD58R,3.300X2.600*%
%ADD59R,0.700X2.400*%
%ADD60O,0.700X2.400*%
%ADD61R,1.200X1.200*%
G04:AMPARAMS|DCode=62|XSize=1.2mm|YSize=1.1mm|CornerRadius=0.213mm|HoleSize=0mm|Usage=FLASHONLY|Rotation=180.000|XOffset=0mm|YOffset=0mm|HoleType=Round|Shape=RoundedRectangle|*
%AMROUNDEDRECTD62*
21,1,1.200,0.675,0,0,180.0*
21,1,0.775,1.100,0,0,180.0*
1,1,0.425,-0.388,0.338*
1,1,0.425,0.388,0.338*
1,1,0.425,0.388,-0.338*
1,1,0.425,-0.388,-0.338*
%
%ADD62ROUNDEDRECTD62*%
%ADD63R,3.200X4.200*%
%ADD64R,1.200X0.860*%
G04:AMPARAMS|DCode=65|XSize=1.2mm|YSize=0.86mm|CornerRadius=0.265mm|HoleSize=0mm|Usage=FLASHONLY|Rotation=0.000|XOffset=0mm|YOffset=0mm|HoleType=Round|Shape=RoundedRectangle|*
%AMROUNDEDRECTD65*
21,1,1.200,0.330,0,0,0.0*
21,1,0.670,0.860,0,0,0.0*
1,1,0.530,0.335,-0.165*
1,1,0.530,-0.335,-0.165*
1,1,0.530,-0.335,0.165*
1,1,0.530,0.335,0.165*
%
%ADD65ROUNDEDRECTD65*%
%ADD66R,4.200X3.200*%
D17*
X2000Y24200D02*
D03*
Y27200D02*
D03*
X10400Y23100D02*
D03*
Y26100D02*
D03*
X18500Y23100D02*
D03*
Y26100D02*
D03*
D19*
X20150Y20000D02*
D03*
X18450D02*
D03*
X5050Y18600D02*
D03*
X3350D02*
D03*
X12050Y20000D02*
D03*
X10350D02*
D03*
X10650Y10600D02*
D03*
X8950D02*
D03*
X17450Y17400D02*
D03*
X19150D02*
D03*
X17650Y12000D02*
D03*
X19350D02*
D03*
D24*
X22900Y6200D02*
D03*
X3100Y12800D02*
D03*
X1200Y3100D02*
D03*
X9800D02*
D03*
X18400D02*
D03*
D25*
X22160Y11410D02*
D03*
X24700Y10140D02*
D03*
X22160Y8870D02*
D03*
X24700Y7600D02*
D03*
X3840Y7590D02*
D03*
X1300Y8860D02*
D03*
X3840Y10130D02*
D03*
X1300Y11400D02*
D03*
X6410Y3840D02*
D03*
X5140Y1300D02*
D03*
X3870Y3840D02*
D03*
X2600Y1300D02*
D03*
X15010Y3840D02*
D03*
X13740Y1300D02*
D03*
X12470Y3840D02*
D03*
X11200Y1300D02*
D03*
X23610Y3840D02*
D03*
X22340Y1300D02*
D03*
X21070Y3840D02*
D03*
X19800Y1300D02*
D03*
D26*
X2000Y16000D02*
D03*
X24000D02*
D03*
D54*
X19500Y26350D02*
D03*
D55*
X11450D02*
D03*
D56*
X16340Y12000D02*
D03*
D57*
X15705D02*
D03*
X15070D02*
D03*
X14435D02*
D03*
X13800D02*
D03*
X13165D02*
D03*
X12530D02*
D03*
X11895D02*
D03*
X16340Y17400D02*
D03*
X15705D02*
D03*
X15070D02*
D03*
X14435D02*
D03*
X13800D02*
D03*
X13165D02*
D03*
X12530D02*
D03*
X11895D02*
D03*
D58*
X23100Y23400D02*
D03*
X15000Y23400D02*
D03*
X6900Y23400D02*
D03*
D59*
X25005Y20525D02*
D03*
X16905Y20525D02*
D03*
X8805Y20525D02*
D03*
D60*
X23735D02*
D03*
X22465D02*
D03*
X21195D02*
D03*
X25005Y26275D02*
D03*
X23735D02*
D03*
X22465D02*
D03*
X21195D02*
D03*
X15635Y20525D02*
D03*
X14365D02*
D03*
X13095D02*
D03*
X16905Y26275D02*
D03*
X15635D02*
D03*
X14365D02*
D03*
X13095D02*
D03*
X7535Y20525D02*
D03*
X6265D02*
D03*
X4995D02*
D03*
X8805Y26275D02*
D03*
X7535D02*
D03*
X6265D02*
D03*
X4995D02*
D03*
D61*
X8000Y5800D02*
D03*
X9200D02*
D03*
D62*
X12900Y9050D02*
D03*
Y7350D02*
D03*
X14400Y7350D02*
D03*
Y9050D02*
D03*
X11400D02*
D03*
Y7350D02*
D03*
X6100Y9050D02*
D03*
Y7350D02*
D03*
X3800Y26250D02*
D03*
Y24550D02*
D03*
X12000Y26250D02*
D03*
Y24550D02*
D03*
X20100Y26250D02*
D03*
Y24550D02*
D03*
D63*
X9800Y29700D02*
D03*
X6400D02*
D03*
X17000D02*
D03*
X13500D02*
D03*
X24200D02*
D03*
X20700D02*
D03*
D64*
X7500Y7300D02*
D03*
D65*
Y8250D02*
D03*
Y9200D02*
D03*
X10130Y7300D02*
D03*
Y9200D02*
D03*
D66*
X2400Y21600D02*
D03*
X2300Y30200D02*
D03*
M02*
