G04*
G04 #@! TF.GenerationSoftware,Altium Limited,Altium Designer,19.1.8 (144)*
G04*
G04 Layer_Color=8388736*
%FSLAX43Y43*%
%MOMM*%
G71*
G01*
G75*
%ADD13R,22.300X1.400*%
%ADD14R,1.400X0.700*%
%ADD15R,0.700X1.400*%
%ADD16O,0.700X1.400*%
G04:AMPARAMS|DCode=17|XSize=2mm|YSize=1.35mm|CornerRadius=0.244mm|HoleSize=0mm|Usage=FLASHONLY|Rotation=0.000|XOffset=0mm|YOffset=0mm|HoleType=Round|Shape=RoundedRectangle|*
%AMROUNDEDRECTD17*
21,1,2.000,0.863,0,0,0.0*
21,1,1.513,1.350,0,0,0.0*
1,1,0.488,0.756,-0.431*
1,1,0.488,-0.756,-0.431*
1,1,0.488,-0.756,0.431*
1,1,0.488,0.756,0.431*
%
%ADD17ROUNDEDRECTD17*%
%ADD18R,1.200X1.100*%
G04:AMPARAMS|DCode=19|XSize=1.2mm|YSize=1.1mm|CornerRadius=0.213mm|HoleSize=0mm|Usage=FLASHONLY|Rotation=270.000|XOffset=0mm|YOffset=0mm|HoleType=Round|Shape=RoundedRectangle|*
%AMROUNDEDRECTD19*
21,1,1.200,0.675,0,0,270.0*
21,1,0.775,1.100,0,0,270.0*
1,1,0.425,-0.338,-0.388*
1,1,0.425,-0.338,0.388*
1,1,0.425,0.338,0.388*
1,1,0.425,0.338,-0.388*
%
%ADD19ROUNDEDRECTD19*%
G04:AMPARAMS|DCode=20|XSize=1mm|YSize=1mm|CornerRadius=0.2mm|HoleSize=0mm|Usage=FLASHONLY|Rotation=90.000|XOffset=0mm|YOffset=0mm|HoleType=Round|Shape=RoundedRectangle|*
%AMROUNDEDRECTD20*
21,1,1.000,0.600,0,0,90.0*
21,1,0.600,1.000,0,0,90.0*
1,1,0.400,0.300,0.300*
1,1,0.400,0.300,-0.300*
1,1,0.400,-0.300,-0.300*
1,1,0.400,-0.300,0.300*
%
%ADD20ROUNDEDRECTD20*%
G04:AMPARAMS|DCode=21|XSize=1.2mm|YSize=0.86mm|CornerRadius=0.265mm|HoleSize=0mm|Usage=FLASHONLY|Rotation=270.000|XOffset=0mm|YOffset=0mm|HoleType=Round|Shape=RoundedRectangle|*
%AMROUNDEDRECTD21*
21,1,1.200,0.330,0,0,270.0*
21,1,0.670,0.860,0,0,270.0*
1,1,0.530,-0.165,-0.335*
1,1,0.530,-0.165,0.335*
1,1,0.530,0.165,0.335*
1,1,0.530,0.165,-0.335*
%
%ADD21ROUNDEDRECTD21*%
%ADD22R,0.860X1.200*%
G04:AMPARAMS|DCode=23|XSize=1mm|YSize=1mm|CornerRadius=0.2mm|HoleSize=0mm|Usage=FLASHONLY|Rotation=180.000|XOffset=0mm|YOffset=0mm|HoleType=Round|Shape=RoundedRectangle|*
%AMROUNDEDRECTD23*
21,1,1.000,0.600,0,0,180.0*
21,1,0.600,1.000,0,0,180.0*
1,1,0.400,-0.300,0.300*
1,1,0.400,0.300,0.300*
1,1,0.400,0.300,-0.300*
1,1,0.400,-0.300,-0.300*
%
%ADD23ROUNDEDRECTD23*%
%ADD24C,0.200*%
%ADD25C,1.500*%
%ADD26C,2.200*%
D13*
X14650Y23100D02*
D03*
Y26100D02*
D03*
D14*
X7750Y7850D02*
D03*
Y8650D02*
D03*
Y9450D02*
D03*
Y10250D02*
D03*
Y11050D02*
D03*
Y11850D02*
D03*
Y12650D02*
D03*
Y13450D02*
D03*
X16250D02*
D03*
Y12650D02*
D03*
Y11850D02*
D03*
Y11050D02*
D03*
Y10250D02*
D03*
Y9450D02*
D03*
Y8650D02*
D03*
Y7850D02*
D03*
D15*
X9200Y14900D02*
D03*
X10000D02*
D03*
X10800D02*
D03*
X11600D02*
D03*
X12400D02*
D03*
X13200D02*
D03*
X14000D02*
D03*
X14800D02*
D03*
Y6400D02*
D03*
X14000D02*
D03*
X13200D02*
D03*
X12400D02*
D03*
X11600D02*
D03*
X10800D02*
D03*
X10000D02*
D03*
D16*
X9200D02*
D03*
D17*
X23400Y23100D02*
D03*
Y26100D02*
D03*
X17100Y23100D02*
D03*
Y26100D02*
D03*
X15000Y23100D02*
D03*
Y26100D02*
D03*
X8700Y23100D02*
D03*
Y26100D02*
D03*
X6600Y23100D02*
D03*
Y26100D02*
D03*
X19200Y26100D02*
D03*
Y23100D02*
D03*
X21300Y26100D02*
D03*
Y23100D02*
D03*
X10800D02*
D03*
Y26100D02*
D03*
X12900Y23100D02*
D03*
Y26100D02*
D03*
X4500Y23100D02*
D03*
Y26100D02*
D03*
D18*
X19700Y10400D02*
D03*
Y6300D02*
D03*
X18100Y10400D02*
D03*
Y6300D02*
D03*
D19*
X6150Y6400D02*
D03*
X7850D02*
D03*
X17850Y14900D02*
D03*
X16150D02*
D03*
X6650Y14800D02*
D03*
X4950D02*
D03*
X2750Y22800D02*
D03*
X1050D02*
D03*
X3550Y28100D02*
D03*
X1850D02*
D03*
X950Y20200D02*
D03*
X2650D02*
D03*
D20*
X6200Y12950D02*
D03*
Y11250D02*
D03*
D21*
X2750Y24070D02*
D03*
X850D02*
D03*
X1800Y26700D02*
D03*
X850D02*
D03*
D22*
X2750D02*
D03*
D23*
X950Y21500D02*
D03*
X2650D02*
D03*
D24*
X22900Y6200D02*
D03*
X3100Y12800D02*
D03*
X1200Y3100D02*
D03*
X9800D02*
D03*
X18400D02*
D03*
D25*
X22160Y11410D02*
D03*
X24700Y10140D02*
D03*
X22160Y8870D02*
D03*
X24700Y7600D02*
D03*
X3840Y7590D02*
D03*
X1300Y8860D02*
D03*
X3840Y10130D02*
D03*
X1300Y11400D02*
D03*
X6410Y3840D02*
D03*
X5140Y1300D02*
D03*
X3870Y3840D02*
D03*
X2600Y1300D02*
D03*
X15010Y3840D02*
D03*
X13740Y1300D02*
D03*
X12470Y3840D02*
D03*
X11200Y1300D02*
D03*
X23610Y3840D02*
D03*
X22340Y1300D02*
D03*
X21070Y3840D02*
D03*
X19800Y1300D02*
D03*
D26*
X2000Y16000D02*
D03*
X24000D02*
D03*
M02*
