G04*
G04 #@! TF.GenerationSoftware,Altium Limited,Altium Designer,19.1.8 (144)*
G04*
G04 Layer_Color=65535*
%FSLAX43Y43*%
%MOMM*%
G71*
G01*
G75*
%ADD10C,0.200*%
%ADD11C,0.127*%
%ADD12C,0.300*%
D10*
X3225Y25622D02*
G03*
X3225Y25147I0J-237D01*
G01*
Y25405D01*
Y25365D02*
Y25622D01*
D11*
X22524Y25000D02*
X24276D01*
X22524Y24200D02*
X24276D01*
X16224Y25000D02*
X17976D01*
X16224Y24200D02*
X17976D01*
X14124Y25000D02*
X15876D01*
X14124Y24200D02*
X15876D01*
X7824Y25000D02*
X9576D01*
X7824Y24200D02*
X9576D01*
X5724Y25000D02*
X7476D01*
X5724Y24200D02*
X7476D01*
X7178Y5924D02*
Y6876D01*
X6822Y5924D02*
Y6876D01*
X16822Y14424D02*
Y15376D01*
X17178Y14424D02*
Y15376D01*
X5850Y13775D02*
X6550D01*
X5525Y10550D02*
Y11650D01*
X6875Y10550D02*
Y11650D01*
X5525Y10550D02*
X6875D01*
X5525Y12550D02*
Y13450D01*
X6875Y12550D02*
Y13450D01*
X6675Y13650D02*
X6875Y13450D01*
X6550Y13775D02*
X6700Y13625D01*
X5675Y13600D02*
X5850Y13775D01*
X5725Y13650D02*
X6675D01*
X5525Y13450D02*
X5725Y13650D01*
X5648Y14394D02*
X5952D01*
X5648Y15206D02*
X5952D01*
X2078Y22324D02*
Y23276D01*
X1722Y22324D02*
Y23276D01*
X2878Y27624D02*
Y28576D01*
X2522Y27624D02*
Y28576D01*
X18324Y24200D02*
X20076D01*
X18324Y25000D02*
X20076D01*
X20424Y24200D02*
X22176D01*
X20424Y25000D02*
X22176D01*
X9924D02*
X11676D01*
X9924Y24200D02*
X11676D01*
X12024Y25000D02*
X13776D01*
X12024Y24200D02*
X13776D01*
X3624Y25000D02*
X5376D01*
X3624Y24200D02*
X5376D01*
X125Y21150D02*
Y21850D01*
X2250Y20825D02*
X3350D01*
X2250Y22175D02*
X3350D01*
Y20825D02*
Y22175D01*
X450Y20825D02*
X1350D01*
X450Y22175D02*
X1350D01*
X250Y21975D02*
X450Y22175D01*
X125Y21850D02*
X275Y22000D01*
X125Y21150D02*
X300Y20975D01*
X250Y21025D02*
Y21975D01*
Y21025D02*
X450Y20825D01*
X1648Y20606D02*
X1952D01*
X1648Y19794D02*
X1952D01*
D12*
X24500Y31000D02*
Y29001D01*
X23834Y29667D01*
X23167Y29001D01*
Y31000D01*
X22501Y29334D02*
X22167Y29001D01*
X21501D01*
X21168Y29334D01*
Y29667D01*
X21501Y30000D01*
X21834D01*
X21501D01*
X21168Y30334D01*
Y30667D01*
X21501Y31000D01*
X22167D01*
X22501Y30667D01*
X17000Y31000D02*
Y29001D01*
X16334Y29667D01*
X15667Y29001D01*
Y31000D01*
X13668D02*
X15001D01*
X13668Y29667D01*
Y29334D01*
X14001Y29001D01*
X14667D01*
X15001Y29334D01*
X9500Y31000D02*
Y29001D01*
X8834Y29667D01*
X8167Y29001D01*
Y31000D01*
X7501D02*
X6834D01*
X7167D01*
Y29001D01*
X7501Y29334D01*
M02*
