M48
;Layer_Color=9474304
;FILE_FORMAT=4:3
METRIC,TZ
;TYPE=PLATED
T1F00S00C0.300
T2F00S00C0.800
;TYPE=NON_PLATED
T3F00S00C1.500
T4F00S00C2.000
%
T01
X5500Y5400
X5100Y6400
X11000Y4000
X12400Y2500
X17100Y2800
X16500Y4300
X18100Y7400
X20400Y9100
X20200Y12000
X19400Y12900
X17400Y13400
X16300Y14700
X18800Y14900
X17300Y17800
X16800Y22500
X15600Y22500
X14400
X13200Y22500
X13800Y23400
X12600Y23400
X13200Y24300
X14400Y24300
X15600
X16800Y24300
X17400Y23400
X16200Y23400
X15000Y23400
X13000Y25600
X12000
X11500Y26300
X12500
X13000Y27000
X12000
X18100
X19100
X20100
X21100
X20600Y26300
X19600
X18600
X18100Y25600
X19100
X20100
X21100
X21300Y24300
X22500Y24300
X23700
X24900Y24300
X25400Y23400
X24300Y23400
X23100Y23400
X21900Y23400
X20700Y23400
X21300Y22500
X22500Y22500
X23700
X24900Y22500
X14100Y14019
X13231Y14050
X12431Y14031
X11600Y14100
X11700Y10600
X13600Y10100
X14500Y10600
X15200Y10100
X14200Y7500
X12400Y8000
X9200Y7300
X8950Y10600
X10700Y11600
X8700Y22500
X7500Y22500
X6300
X5100Y22500
X5700Y23400
X4500Y23400
X5100Y24300
X6300Y24300
X7500
X8700Y24300
X9300Y23400
X8100Y23400
X6900Y23400
X4900Y25600
X3900
X3400Y26300
X4400
X4900Y27000
X3900
X2900
X2800Y29200
X1800
X800
Y30200
Y31200
X1800
Y30200
X2800
Y31200
X3800
Y30200
Y29200
X1800Y24100
X3900Y21300
X3000Y19800
X10000Y25600
X11000
X10500Y26300
X10000Y27000
X11000
T02
X2600Y1300
X5140
X6410Y3840
X3870
X12470
X15010
X13740Y1300
X11200
X19800
X22340
X23610Y3840
X21070
X22160Y8870
Y11410
X24700Y10140
Y7600
X3840Y7590
Y10130
X1300Y8860
Y11400
T03
X1200Y3100
X9800
X18400
X22900Y6200
X3100Y12800
T04
X24000Y16000
X2000
M30
