G04*
G04 #@! TF.GenerationSoftware,Altium Limited,Altium Designer,19.1.8 (144)*
G04*
G04 Layer_Physical_Order=1*
G04 Layer_Color=255*
%FSLAX43Y43*%
%MOMM*%
G71*
G01*
G75*
%ADD12C,0.300*%
%ADD27R,1.200X0.500*%
%ADD28R,0.500X1.200*%
%ADD29O,0.500X1.200*%
G04:AMPARAMS|DCode=30|XSize=1.8mm|YSize=1.15mm|CornerRadius=0.144mm|HoleSize=0mm|Usage=FLASHONLY|Rotation=0.000|XOffset=0mm|YOffset=0mm|HoleType=Round|Shape=RoundedRectangle|*
%AMROUNDEDRECTD30*
21,1,1.800,0.863,0,0,0.0*
21,1,1.513,1.150,0,0,0.0*
1,1,0.288,0.756,-0.431*
1,1,0.288,-0.756,-0.431*
1,1,0.288,-0.756,0.431*
1,1,0.288,0.756,0.431*
%
%ADD30ROUNDEDRECTD30*%
%ADD31R,1.000X0.900*%
G04:AMPARAMS|DCode=32|XSize=1mm|YSize=0.9mm|CornerRadius=0.113mm|HoleSize=0mm|Usage=FLASHONLY|Rotation=270.000|XOffset=0mm|YOffset=0mm|HoleType=Round|Shape=RoundedRectangle|*
%AMROUNDEDRECTD32*
21,1,1.000,0.675,0,0,270.0*
21,1,0.775,0.900,0,0,270.0*
1,1,0.225,-0.338,-0.388*
1,1,0.225,-0.338,0.388*
1,1,0.225,0.338,0.388*
1,1,0.225,0.338,-0.388*
%
%ADD32ROUNDEDRECTD32*%
G04:AMPARAMS|DCode=33|XSize=0.8mm|YSize=0.8mm|CornerRadius=0.1mm|HoleSize=0mm|Usage=FLASHONLY|Rotation=90.000|XOffset=0mm|YOffset=0mm|HoleType=Round|Shape=RoundedRectangle|*
%AMROUNDEDRECTD33*
21,1,0.800,0.600,0,0,90.0*
21,1,0.600,0.800,0,0,90.0*
1,1,0.200,0.300,0.300*
1,1,0.200,0.300,-0.300*
1,1,0.200,-0.300,-0.300*
1,1,0.200,-0.300,0.300*
%
%ADD33ROUNDEDRECTD33*%
G04:AMPARAMS|DCode=34|XSize=1mm|YSize=0.66mm|CornerRadius=0.165mm|HoleSize=0mm|Usage=FLASHONLY|Rotation=270.000|XOffset=0mm|YOffset=0mm|HoleType=Round|Shape=RoundedRectangle|*
%AMROUNDEDRECTD34*
21,1,1.000,0.330,0,0,270.0*
21,1,0.670,0.660,0,0,270.0*
1,1,0.330,-0.165,-0.335*
1,1,0.330,-0.165,0.335*
1,1,0.330,0.165,0.335*
1,1,0.330,0.165,-0.335*
%
%ADD34ROUNDEDRECTD34*%
%ADD35R,0.660X1.000*%
G04:AMPARAMS|DCode=36|XSize=0.8mm|YSize=0.8mm|CornerRadius=0.1mm|HoleSize=0mm|Usage=FLASHONLY|Rotation=180.000|XOffset=0mm|YOffset=0mm|HoleType=Round|Shape=RoundedRectangle|*
%AMROUNDEDRECTD36*
21,1,0.800,0.600,0,0,180.0*
21,1,0.600,0.800,0,0,180.0*
1,1,0.200,-0.300,0.300*
1,1,0.200,0.300,0.300*
1,1,0.200,0.300,-0.300*
1,1,0.200,-0.300,-0.300*
%
%ADD36ROUNDEDRECTD36*%
%ADD37C,0.400*%
%ADD38C,0.500*%
%ADD39C,1.300*%
%ADD40C,2.000*%
%ADD41C,0.600*%
G36*
X22208Y16900D02*
X22077Y16583D01*
X22000Y16197D01*
Y15625D01*
X22069Y15277D01*
X22205Y14949D01*
X22403Y14654D01*
X22654Y14403D01*
X22949Y14205D01*
X23277Y14069D01*
X23625Y14000D01*
X25796D01*
X25796Y204D01*
X204Y204D01*
Y2526D01*
X209Y2529D01*
X404Y2577D01*
X522Y2422D01*
X721Y2270D01*
X952Y2174D01*
X1200Y2142D01*
X1448Y2174D01*
X1679Y2270D01*
X1878Y2422D01*
X2030Y2621D01*
X2126Y2852D01*
X2158Y3100D01*
X2126Y3348D01*
X2030Y3579D01*
X1878Y3778D01*
X1679Y3930D01*
X1448Y4026D01*
X1200Y4058D01*
X952Y4026D01*
X721Y3930D01*
X522Y3778D01*
X404Y3623D01*
X209Y3671D01*
X204Y3674D01*
Y14000D01*
X2197D01*
X2583Y14077D01*
X2947Y14228D01*
X3275Y14446D01*
X3553Y14725D01*
X3772Y15053D01*
X3923Y15417D01*
X4000Y15803D01*
Y16375D01*
X3931Y16723D01*
X3857Y16900D01*
X3991Y17100D01*
X22119D01*
X22208Y16900D01*
D02*
G37*
G36*
X2230Y28590D02*
X2266Y28566D01*
X2290Y28530D01*
X2302Y28467D01*
Y27733D01*
X2290Y27670D01*
X2266Y27634D01*
X2238Y27616D01*
X2217Y27595D01*
X2195Y27577D01*
X2150Y27523D01*
X2140Y27505D01*
X2128Y27490D01*
X2122Y27471D01*
X2112Y27453D01*
X2110Y27433D01*
X2104Y27414D01*
X2084Y27231D01*
X2087Y27201D01*
Y27170D01*
X2091Y27161D01*
X2092Y27152D01*
X2106Y27125D01*
X2116Y27099D01*
X2133Y27015D01*
Y26365D01*
X2134Y26363D01*
X2133Y26361D01*
X2141Y26324D01*
X2149Y26287D01*
X2150Y26285D01*
X2150Y26284D01*
X2172Y26252D01*
X2193Y26221D01*
X2195Y26220D01*
X2196Y26218D01*
X2220Y26195D01*
Y26000D01*
X2489D01*
X2508Y25996D01*
X3002D01*
X3040Y25940D01*
X3096Y25902D01*
Y25400D01*
X3112Y25322D01*
X3156Y25256D01*
X3222Y25212D01*
X3300Y25196D01*
X3605D01*
X3705Y25129D01*
X3900Y25090D01*
X4095Y25129D01*
X4195Y25196D01*
X4605D01*
X4705Y25129D01*
X4900Y25090D01*
X5095Y25129D01*
X5195Y25196D01*
X9705D01*
X9805Y25129D01*
X10000Y25090D01*
X10195Y25129D01*
X10295Y25196D01*
X10705D01*
X10805Y25129D01*
X11000Y25090D01*
X11195Y25129D01*
X11295Y25196D01*
X11705D01*
X11805Y25129D01*
X12000Y25090D01*
X12195Y25129D01*
X12295Y25196D01*
X12705D01*
X12805Y25129D01*
X13000Y25090D01*
X13195Y25129D01*
X13295Y25196D01*
X17805D01*
X17905Y25129D01*
X18100Y25090D01*
X18295Y25129D01*
X18395Y25196D01*
X18805D01*
X18905Y25129D01*
X19100Y25090D01*
X19295Y25129D01*
X19395Y25196D01*
X19805D01*
X19905Y25129D01*
X20100Y25090D01*
X20295Y25129D01*
X20395Y25196D01*
X20805D01*
X20905Y25129D01*
X21100Y25090D01*
X21295Y25129D01*
X21395Y25196D01*
X25796D01*
X25796Y24996D01*
X25796Y18000D01*
X17768D01*
X17660Y18160D01*
X17495Y18271D01*
X17377Y18295D01*
X17261Y18372D01*
X17105Y18403D01*
X17105Y18403D01*
X3551D01*
X2327Y19627D01*
X2400Y19700D01*
Y20700D01*
X2360Y20740D01*
X2489Y20894D01*
X2950D01*
X3067Y20917D01*
X3166Y20984D01*
X3233Y21083D01*
X3256Y21200D01*
Y21800D01*
X3233Y21917D01*
X3232Y21919D01*
X3214Y22077D01*
X3286Y22169D01*
X3313Y22187D01*
X3382Y22291D01*
X3406Y22413D01*
Y23188D01*
X3382Y23309D01*
X3313Y23413D01*
X3209Y23482D01*
X3200Y23505D01*
X3259Y23593D01*
X3287Y23735D01*
Y24405D01*
X3259Y24547D01*
X3178Y24668D01*
X3057Y24749D01*
X2915Y24777D01*
X2585D01*
X2443Y24749D01*
X2322Y24668D01*
X2241Y24547D01*
X2213Y24405D01*
Y23735D01*
X2241Y23593D01*
X2300Y23505D01*
X2291Y23482D01*
X2187Y23413D01*
X2118Y23309D01*
X2094Y23188D01*
Y22413D01*
X2118Y22291D01*
X2143Y22253D01*
X2134Y22030D01*
X2107Y22000D01*
X1477D01*
X1466Y22016D01*
X1367Y22083D01*
X1250Y22106D01*
X650D01*
X533Y22083D01*
X434Y22016D01*
X404Y21972D01*
X204Y22032D01*
Y23438D01*
X404Y23499D01*
X422Y23472D01*
X543Y23391D01*
X685Y23363D01*
X1015D01*
X1157Y23391D01*
X1278Y23472D01*
X1359Y23593D01*
X1387Y23735D01*
Y24405D01*
X1359Y24547D01*
X1278Y24668D01*
X1157Y24749D01*
X1015Y24777D01*
X685D01*
X543Y24749D01*
X422Y24668D01*
X404Y24641D01*
X204Y24702D01*
Y25996D01*
X669D01*
X685Y25993D01*
X1015D01*
X1031Y25996D01*
X1092D01*
X1129Y26003D01*
X1166Y26010D01*
X1168Y26011D01*
X1170Y26012D01*
X1201Y26033D01*
X1233Y26053D01*
X1404Y26218D01*
X1405Y26220D01*
X1407Y26221D01*
X1428Y26252D01*
X1450Y26284D01*
X1450Y26285D01*
X1451Y26287D01*
X1459Y26324D01*
X1467Y26361D01*
X1466Y26363D01*
X1467Y26365D01*
Y27015D01*
X1483Y27098D01*
X1500Y27123D01*
X1510Y27148D01*
X1524Y27172D01*
X1554Y27262D01*
X1558Y27295D01*
X1564Y27329D01*
X1563Y27335D01*
X1563Y27341D01*
X1554Y27373D01*
X1547Y27407D01*
X1478Y27566D01*
X1468Y27581D01*
X1461Y27598D01*
X1454Y27604D01*
X1410Y27670D01*
X1398Y27733D01*
Y28467D01*
X1410Y28530D01*
X1434Y28566D01*
X1470Y28590D01*
X1533Y28602D01*
X2167D01*
X2230Y28590D01*
D02*
G37*
G36*
X25796Y31796D02*
Y25400D01*
X3300D01*
Y26200D01*
X2508D01*
X2337Y26365D01*
Y27035D01*
X2309Y27177D01*
X2287Y27210D01*
X2307Y27392D01*
X2351Y27446D01*
X2413Y27487D01*
X2482Y27591D01*
X2506Y27712D01*
Y28487D01*
X2482Y28609D01*
X2413Y28713D01*
X2309Y28782D01*
X2188Y28806D01*
X1513D01*
X1391Y28782D01*
X1287Y28713D01*
X1218Y28609D01*
X1194Y28487D01*
Y27712D01*
X1218Y27591D01*
X1287Y27487D01*
X1291Y27485D01*
X1360Y27326D01*
X1330Y27236D01*
X1291Y27177D01*
X1263Y27035D01*
Y26365D01*
X1092Y26200D01*
X204D01*
Y31796D01*
X25796Y31796D01*
D02*
G37*
%LPC*%
G36*
X6988Y15506D02*
X6312D01*
X6214Y15486D01*
X6200Y15500D01*
X5400D01*
X5200Y15300D01*
Y14300D01*
X5400Y14100D01*
X5792D01*
Y13534D01*
X5783Y13533D01*
X5684Y13466D01*
X5617Y13367D01*
X5594Y13250D01*
Y12650D01*
X5617Y12533D01*
X5684Y12434D01*
X5700Y12423D01*
Y11777D01*
X5684Y11766D01*
X5617Y11667D01*
X5594Y11550D01*
Y10950D01*
X5617Y10833D01*
X5684Y10734D01*
X5783Y10667D01*
X5836Y10657D01*
X5816Y10457D01*
X5643D01*
X5506Y10430D01*
X5391Y10352D01*
X4841Y9803D01*
X4677Y9902D01*
X4669Y9913D01*
X4697Y10130D01*
X4668Y10352D01*
X4582Y10559D01*
X4446Y10736D01*
X4269Y10872D01*
X4062Y10958D01*
X3840Y10987D01*
X3618Y10958D01*
X3411Y10872D01*
X3234Y10736D01*
X3098Y10559D01*
X3012Y10352D01*
X2983Y10130D01*
X3012Y9908D01*
X3098Y9701D01*
X3234Y9524D01*
X3411Y9388D01*
X3618Y9302D01*
X3840Y9273D01*
X3871Y9277D01*
X3997Y9092D01*
X3977Y9057D01*
X2131D01*
X2128Y9082D01*
X2042Y9289D01*
X1906Y9466D01*
X1729Y9602D01*
X1522Y9688D01*
X1300Y9717D01*
X1078Y9688D01*
X871Y9602D01*
X694Y9466D01*
X558Y9289D01*
X472Y9082D01*
X443Y8860D01*
X472Y8638D01*
X558Y8431D01*
X694Y8254D01*
X871Y8118D01*
X1078Y8032D01*
X1300Y8003D01*
X1522Y8032D01*
X1729Y8118D01*
X1906Y8254D01*
X1975Y8343D01*
X3105D01*
X3129Y8316D01*
X3193Y8143D01*
X3098Y8019D01*
X3012Y7812D01*
X2983Y7590D01*
X3012Y7368D01*
X3098Y7161D01*
X3234Y6984D01*
X3411Y6848D01*
X3618Y6762D01*
X3840Y6733D01*
X4062Y6762D01*
X4269Y6848D01*
X4446Y6984D01*
X4582Y7161D01*
X4668Y7368D01*
X4697Y7590D01*
X4668Y7812D01*
X4638Y7884D01*
X5998Y9243D01*
X6950D01*
Y8200D01*
X8550D01*
Y8400D01*
X8952Y8803D01*
X9030Y8918D01*
X9057Y9055D01*
Y10111D01*
X9145Y10129D01*
X9310Y10240D01*
X9421Y10405D01*
X9460Y10600D01*
X9421Y10795D01*
X9310Y10960D01*
X9145Y11071D01*
X8950Y11110D01*
X8755Y11071D01*
X8750Y11068D01*
X8550Y11175D01*
Y12200D01*
Y13000D01*
Y13900D01*
X7150D01*
X7134Y13900D01*
X7079Y14100D01*
X7105Y14116D01*
X7109Y14118D01*
X7125Y14128D01*
X7213Y14187D01*
X7282Y14291D01*
X7306Y14413D01*
Y15188D01*
X7282Y15309D01*
X7213Y15413D01*
X7109Y15482D01*
X6988Y15506D01*
D02*
G37*
G36*
X3100Y13758D02*
X2852Y13726D01*
X2621Y13630D01*
X2422Y13478D01*
X2270Y13279D01*
X2174Y13048D01*
X2142Y12800D01*
X2174Y12552D01*
X2270Y12321D01*
X2422Y12122D01*
X2621Y11970D01*
X2852Y11874D01*
X3100Y11842D01*
X3348Y11874D01*
X3579Y11970D01*
X3778Y12122D01*
X3930Y12321D01*
X4026Y12552D01*
X4058Y12800D01*
X4026Y13048D01*
X3930Y13279D01*
X3778Y13478D01*
X3579Y13630D01*
X3348Y13726D01*
X3100Y13758D01*
D02*
G37*
G36*
X17050Y13100D02*
X15450D01*
Y12200D01*
Y11407D01*
X15031D01*
X14895Y11380D01*
X14779Y11302D01*
X14572Y11095D01*
X14500Y11110D01*
X14305Y11071D01*
X14140Y10960D01*
X14029Y10795D01*
X13990Y10600D01*
X14029Y10405D01*
X14140Y10240D01*
X14305Y10129D01*
X14500Y10090D01*
X14504Y10091D01*
X14690Y10100D01*
X14729Y9905D01*
X14840Y9740D01*
X15005Y9629D01*
X15200Y9590D01*
X15250Y9600D01*
X15450Y9443D01*
Y9000D01*
Y7935D01*
X15265Y7859D01*
X14722Y8402D01*
X14606Y8480D01*
X14469Y8507D01*
X13550D01*
X13414Y8480D01*
X13298Y8402D01*
X13252Y8357D01*
X12763D01*
X12760Y8360D01*
X12595Y8471D01*
X12400Y8510D01*
X12205Y8471D01*
X12040Y8360D01*
X11929Y8195D01*
X11909Y8095D01*
X11448Y7634D01*
X11370Y7518D01*
X11343Y7381D01*
Y7200D01*
X9792D01*
X9710Y7300D01*
X9671Y7495D01*
X9561Y7661D01*
X9395Y7771D01*
X9200Y7810D01*
X9005Y7771D01*
X8840Y7661D01*
X8729Y7495D01*
X8690Y7300D01*
X8729Y7105D01*
X8741Y7087D01*
Y6808D01*
X8502D01*
X8482Y6909D01*
X8413Y7013D01*
X8309Y7082D01*
X8188Y7106D01*
X7512D01*
X7391Y7082D01*
X7287Y7013D01*
X7218Y6909D01*
X7194Y6787D01*
Y6012D01*
X7217Y5897D01*
X7218Y5890D01*
X7107Y5697D01*
X6496D01*
X6359Y5670D01*
X6243Y5592D01*
X5048Y4397D01*
X4970Y4281D01*
X4943Y4144D01*
Y2131D01*
X4918Y2128D01*
X4711Y2042D01*
X4534Y1906D01*
X4398Y1729D01*
X4312Y1522D01*
X4283Y1300D01*
X4312Y1078D01*
X4398Y871D01*
X4534Y694D01*
X4711Y558D01*
X4918Y472D01*
X5140Y443D01*
X5362Y472D01*
X5569Y558D01*
X5746Y694D01*
X5882Y871D01*
X5968Y1078D01*
X5997Y1300D01*
X5968Y1522D01*
X5882Y1729D01*
X5746Y1906D01*
X5657Y1975D01*
Y3105D01*
X5684Y3129D01*
X5857Y3193D01*
X5981Y3098D01*
X6188Y3012D01*
X6410Y2983D01*
X6632Y3012D01*
X6839Y3098D01*
X7016Y3234D01*
X7152Y3411D01*
X7238Y3618D01*
X7267Y3840D01*
X7238Y4062D01*
X7208Y4134D01*
X7558Y4483D01*
X11640D01*
X11739Y4283D01*
X11728Y4269D01*
X11642Y4062D01*
X11613Y3840D01*
X11642Y3618D01*
X11728Y3411D01*
X11864Y3234D01*
X12041Y3098D01*
X12248Y3012D01*
X12470Y2983D01*
X12692Y3012D01*
X12899Y3098D01*
X12943Y3132D01*
X13143Y3033D01*
Y1913D01*
X13134Y1906D01*
X12998Y1729D01*
X12912Y1522D01*
X12883Y1300D01*
X12912Y1078D01*
X12998Y871D01*
X13134Y694D01*
X13311Y558D01*
X13518Y472D01*
X13740Y443D01*
X13962Y472D01*
X14169Y558D01*
X14346Y694D01*
X14482Y871D01*
X14568Y1078D01*
X14597Y1300D01*
X14568Y1522D01*
X14482Y1729D01*
X14346Y1906D01*
X14169Y2042D01*
X13962Y2128D01*
X13857Y2142D01*
Y2677D01*
X14042Y2754D01*
X14348Y2448D01*
X14463Y2370D01*
X14600Y2343D01*
X16050D01*
X16187Y2370D01*
X16302Y2448D01*
X17273Y3418D01*
X17459Y3351D01*
X17473Y3335D01*
X17442Y3100D01*
X17474Y2852D01*
X17570Y2621D01*
X17722Y2422D01*
X17921Y2270D01*
X18152Y2174D01*
X18400Y2142D01*
X18648Y2174D01*
X18879Y2270D01*
X19078Y2422D01*
X19230Y2621D01*
X19326Y2852D01*
X19358Y3100D01*
X19326Y3348D01*
X19230Y3579D01*
X19078Y3778D01*
X18879Y3930D01*
X18648Y4026D01*
X18400Y4058D01*
X18165Y4027D01*
X18149Y4041D01*
X18082Y4227D01*
X19505Y5650D01*
X20400D01*
Y5659D01*
X20600Y5733D01*
X21558Y4774D01*
X21445Y4605D01*
X21292Y4668D01*
X21070Y4697D01*
X20848Y4668D01*
X20641Y4582D01*
X20464Y4446D01*
X20328Y4269D01*
X20242Y4062D01*
X20213Y3840D01*
X20242Y3618D01*
X20328Y3411D01*
X20464Y3234D01*
X20641Y3098D01*
X20848Y3012D01*
X21070Y2983D01*
X21292Y3012D01*
X21499Y3098D01*
X21676Y3234D01*
X21812Y3411D01*
X21880Y3575D01*
X22080Y3536D01*
Y2112D01*
X21911Y2042D01*
X21734Y1906D01*
X21598Y1729D01*
X21512Y1522D01*
X21483Y1300D01*
X21512Y1078D01*
X21598Y871D01*
X21734Y694D01*
X21911Y558D01*
X22118Y472D01*
X22340Y443D01*
X22562Y472D01*
X22769Y558D01*
X22946Y694D01*
X23082Y871D01*
X23168Y1078D01*
X23197Y1300D01*
X23168Y1522D01*
X23082Y1729D01*
X22946Y1906D01*
X22794Y2023D01*
Y3178D01*
X22994Y3246D01*
X23004Y3234D01*
X23181Y3098D01*
X23388Y3012D01*
X23610Y2983D01*
X23832Y3012D01*
X24039Y3098D01*
X24216Y3234D01*
X24352Y3411D01*
X24438Y3618D01*
X24467Y3840D01*
X24438Y4062D01*
X24352Y4269D01*
X24216Y4446D01*
X24039Y4582D01*
X23832Y4668D01*
X23610Y4697D01*
X23388Y4668D01*
X23383Y4666D01*
X22996Y5053D01*
X23068Y5264D01*
X23148Y5274D01*
X23379Y5370D01*
X23578Y5522D01*
X23730Y5721D01*
X23826Y5952D01*
X23858Y6200D01*
X23826Y6448D01*
X23730Y6679D01*
X23578Y6878D01*
X23379Y7030D01*
X23148Y7126D01*
X22900Y7158D01*
X22652Y7126D01*
X22421Y7030D01*
X22222Y6878D01*
X22070Y6679D01*
X21974Y6448D01*
X21973Y6440D01*
X21773Y6365D01*
X21657Y6458D01*
Y6852D01*
X21630Y6989D01*
X21552Y7104D01*
X19404Y9252D01*
X19289Y9330D01*
X19152Y9357D01*
X17393D01*
X17050Y9700D01*
Y10600D01*
Y11400D01*
Y12200D01*
Y13100D01*
D02*
G37*
G36*
X19291Y16757D02*
X10155D01*
X10018Y16730D01*
X9903Y16652D01*
X9048Y15797D01*
X8983Y15700D01*
X8750D01*
Y14100D01*
X11090D01*
X11090Y14100D01*
X11129Y13905D01*
X11240Y13740D01*
X11405Y13629D01*
X11600Y13590D01*
X11795Y13629D01*
X11839Y13658D01*
X12071Y13671D01*
X12236Y13560D01*
X12431Y13521D01*
X12626Y13560D01*
X12689Y13602D01*
X12816Y13663D01*
X12991Y13609D01*
X13036Y13579D01*
X13231Y13540D01*
X13426Y13579D01*
X13592Y13690D01*
X13789Y13625D01*
X13905Y13548D01*
X14100Y13509D01*
X14295Y13548D01*
X14460Y13659D01*
X14571Y13824D01*
X14610Y14019D01*
X14676Y14100D01*
X15250D01*
Y14492D01*
X15498D01*
X15518Y14391D01*
X15587Y14287D01*
X15691Y14218D01*
X15812Y14194D01*
X16282D01*
X16300Y14190D01*
X16318Y14194D01*
X16487D01*
X16609Y14218D01*
X16713Y14287D01*
X16782Y14391D01*
X16806Y14512D01*
Y14682D01*
X16810Y14700D01*
X16806Y14718D01*
Y15288D01*
X16805Y15293D01*
X16948Y15493D01*
X18986D01*
X22028Y12452D01*
X21956Y12241D01*
X21938Y12238D01*
X21731Y12152D01*
X21554Y12016D01*
X21418Y11839D01*
X21332Y11632D01*
X21303Y11410D01*
X21332Y11188D01*
X21362Y11116D01*
X21002Y10757D01*
X20400D01*
Y11050D01*
X19000D01*
Y9750D01*
X20400D01*
Y10043D01*
X21150D01*
X21287Y10070D01*
X21402Y10148D01*
X21866Y10612D01*
X21938Y10582D01*
X22160Y10553D01*
X22382Y10582D01*
X22589Y10668D01*
X22643Y10709D01*
X22843Y10611D01*
Y10058D01*
X22454Y9668D01*
X22382Y9698D01*
X22160Y9727D01*
X21938Y9698D01*
X21731Y9612D01*
X21554Y9476D01*
X21418Y9299D01*
X21332Y9092D01*
X21303Y8870D01*
X21332Y8648D01*
X21418Y8441D01*
X21554Y8264D01*
X21731Y8128D01*
X21938Y8042D01*
X22160Y8013D01*
X22382Y8042D01*
X22589Y8128D01*
X22766Y8264D01*
X22902Y8441D01*
X22988Y8648D01*
X23017Y8870D01*
X22988Y9092D01*
X22958Y9164D01*
X23452Y9658D01*
X23530Y9773D01*
X23557Y9910D01*
Y10517D01*
X23742Y10594D01*
X23902Y10434D01*
X23872Y10362D01*
X23843Y10140D01*
X23872Y9918D01*
X23958Y9711D01*
X24094Y9534D01*
X24271Y9398D01*
X24478Y9312D01*
X24700Y9283D01*
X24922Y9312D01*
X25129Y9398D01*
X25306Y9534D01*
X25442Y9711D01*
X25528Y9918D01*
X25557Y10140D01*
X25528Y10362D01*
X25442Y10569D01*
X25306Y10746D01*
X25129Y10882D01*
X24922Y10968D01*
X24700Y10997D01*
X24478Y10968D01*
X24406Y10938D01*
X24057Y11288D01*
Y11991D01*
X24030Y12128D01*
X23952Y12244D01*
X19544Y16652D01*
X19428Y16730D01*
X19291Y16757D01*
D02*
G37*
G36*
X3870Y4697D02*
X3648Y4668D01*
X3441Y4582D01*
X3264Y4446D01*
X3128Y4269D01*
X3042Y4062D01*
X3013Y3840D01*
X3042Y3618D01*
X3128Y3411D01*
X3264Y3234D01*
X3441Y3098D01*
X3648Y3012D01*
X3870Y2983D01*
X4092Y3012D01*
X4299Y3098D01*
X4476Y3234D01*
X4612Y3411D01*
X4698Y3618D01*
X4727Y3840D01*
X4698Y4062D01*
X4612Y4269D01*
X4476Y4446D01*
X4299Y4582D01*
X4092Y4668D01*
X3870Y4697D01*
D02*
G37*
G36*
X9800Y4058D02*
X9552Y4026D01*
X9321Y3930D01*
X9122Y3778D01*
X8970Y3579D01*
X8874Y3348D01*
X8842Y3100D01*
X8874Y2852D01*
X8970Y2621D01*
X9122Y2422D01*
X9321Y2270D01*
X9552Y2174D01*
X9800Y2142D01*
X10048Y2174D01*
X10279Y2270D01*
X10478Y2422D01*
X10630Y2621D01*
X10726Y2852D01*
X10758Y3100D01*
X10726Y3348D01*
X10630Y3579D01*
X10478Y3778D01*
X10279Y3930D01*
X10048Y4026D01*
X9800Y4058D01*
D02*
G37*
%LPD*%
G36*
X19806Y7135D02*
X19729Y6950D01*
X19000D01*
Y6155D01*
X15902Y3057D01*
X15714D01*
X15655Y3164D01*
X15634Y3257D01*
X15752Y3411D01*
X15838Y3618D01*
X15867Y3840D01*
X15838Y4062D01*
X15808Y4134D01*
X16502Y4828D01*
X16580Y4943D01*
X16607Y5080D01*
Y7400D01*
X17050D01*
Y8143D01*
X18797D01*
X19806Y7135D01*
D02*
G37*
D12*
X19152Y9000D02*
X21300Y6852D01*
X17245Y9000D02*
X19152D01*
X16795Y9450D02*
X17245Y9000D01*
X18945Y8500D02*
X20800Y6645D01*
X16400Y8500D02*
X18945D01*
X16250Y8650D02*
X16400Y8500D01*
X16250Y9450D02*
X16795D01*
X21300Y6244D02*
Y6852D01*
X20800Y6037D02*
X22437Y4400D01*
X20800Y6037D02*
Y6645D01*
X8700Y10350D02*
X8950Y10600D01*
X8700Y9055D02*
Y10350D01*
X8295Y8650D02*
X8700Y9055D01*
X950Y20200D02*
X950D01*
X950D02*
Y21500D01*
X7750Y8650D02*
X8295D01*
X15400Y5644D02*
Y7219D01*
X14469Y8150D02*
X15400Y7219D01*
X13550Y8150D02*
X14469D01*
X13400Y8000D02*
X13550Y8150D01*
X12400Y8000D02*
X13400D01*
X12400Y8000D02*
X12400Y8000D01*
X12500Y7045D02*
X12955Y7500D01*
X14200D01*
X11700Y6500D02*
Y7381D01*
X12319Y8000D01*
X12400D01*
X12500Y6500D02*
Y7045D01*
X12400Y6400D02*
X12500Y6500D01*
X19134Y15850D02*
X23200Y11784D01*
X10405Y15850D02*
X19134D01*
X19291Y16400D02*
X23700Y11991D01*
Y11140D02*
Y11991D01*
Y11140D02*
X24700Y10140D01*
X10155Y16400D02*
X19291D01*
X9300Y15545D02*
X10155Y16400D01*
X9300Y15000D02*
Y15545D01*
X9200Y14900D02*
X9300Y15000D01*
X22160Y8870D02*
X23200Y9910D01*
Y11784D01*
X10100Y15545D02*
X10405Y15850D01*
X10100Y15000D02*
Y15545D01*
X10000Y14900D02*
X10100Y15000D01*
X11600Y14100D02*
Y14900D01*
X13216Y14166D02*
X13231Y14150D01*
X13216Y14166D02*
Y14884D01*
X13200Y14900D02*
X13216Y14884D01*
X14100Y13919D02*
Y14800D01*
X12431Y14131D02*
Y14869D01*
X11600Y14900D02*
X11600Y14900D01*
X21150Y10400D02*
X22160Y11410D01*
X19700Y10400D02*
X21150D01*
X14600Y2700D02*
X16050D01*
X14000Y3300D02*
X14600Y2700D01*
X14000Y3300D02*
Y4244D01*
X16050Y2700D02*
X19650Y6300D01*
X19700D01*
X16250Y5080D02*
Y7850D01*
X14000Y4244D02*
X15400Y5644D01*
X11600Y6400D02*
X11700Y6500D01*
X13500Y4555D02*
X14800Y5855D01*
X13500Y1540D02*
Y4555D01*
Y1540D02*
X13740Y1300D01*
X21300Y6244D02*
X23610Y3934D01*
Y3840D02*
Y3934D01*
X22437Y1397D02*
Y4400D01*
X22340Y1300D02*
X22437Y1397D01*
X15200Y10100D02*
X15257Y10157D01*
X14500Y10600D02*
X14581D01*
X15031Y11050D01*
X15257Y10157D02*
X16157D01*
X15031Y11050D02*
X16250D01*
X16157Y10157D02*
X16250Y10250D01*
X14000Y14900D02*
X14100Y14800D01*
X12400Y14900D02*
X12431Y14869D01*
X7600Y9600D02*
X7750Y9450D01*
X7600Y10100D02*
X7750Y10250D01*
X14800Y5855D02*
Y6400D01*
X13100Y5755D02*
Y6300D01*
X12685Y5340D02*
X13100Y5755D01*
X6496Y5340D02*
X12685D01*
X12985Y4840D02*
X14000Y5855D01*
X7410Y4840D02*
X12985D01*
X14000Y5855D02*
Y6400D01*
X6410Y3840D02*
X7410Y4840D01*
X13100Y6300D02*
X13200Y6400D01*
X15010Y3840D02*
X16250Y5080D01*
X5140Y1300D02*
X5300Y1460D01*
Y4144D01*
X6496Y5340D01*
X5850Y9600D02*
X7600D01*
X3840Y7590D02*
X5850Y9600D01*
X5643Y10100D02*
X7600D01*
X4243Y8700D02*
X5643Y10100D01*
X1460Y8700D02*
X4243D01*
X1300Y8860D02*
X1460Y8700D01*
D27*
X7750Y7850D02*
D03*
Y8650D02*
D03*
Y9450D02*
D03*
Y10250D02*
D03*
Y11050D02*
D03*
Y11850D02*
D03*
Y12650D02*
D03*
Y13450D02*
D03*
X16250D02*
D03*
Y12650D02*
D03*
Y11850D02*
D03*
Y11050D02*
D03*
Y10250D02*
D03*
Y9450D02*
D03*
Y8650D02*
D03*
Y7850D02*
D03*
D28*
X9200Y14900D02*
D03*
X10000D02*
D03*
X10800D02*
D03*
X11600D02*
D03*
X12400D02*
D03*
X13200D02*
D03*
X14000D02*
D03*
X14800D02*
D03*
Y6400D02*
D03*
X14000D02*
D03*
X13200D02*
D03*
X12400D02*
D03*
X11600D02*
D03*
X10800D02*
D03*
X10000D02*
D03*
D29*
X9200D02*
D03*
D30*
X23400Y23100D02*
D03*
Y26100D02*
D03*
X17100Y23100D02*
D03*
Y26100D02*
D03*
X15000Y23100D02*
D03*
Y26100D02*
D03*
X8700Y23100D02*
D03*
Y26100D02*
D03*
X6600Y23100D02*
D03*
Y26100D02*
D03*
X19200Y26100D02*
D03*
Y23100D02*
D03*
X21300Y26100D02*
D03*
Y23100D02*
D03*
X10800D02*
D03*
Y26100D02*
D03*
X12900Y23100D02*
D03*
Y26100D02*
D03*
X4500Y23100D02*
D03*
Y26100D02*
D03*
D31*
X19700Y10400D02*
D03*
Y6300D02*
D03*
X18100Y10400D02*
D03*
Y6300D02*
D03*
D32*
X6150Y6400D02*
D03*
X7850D02*
D03*
X17850Y14900D02*
D03*
X16150D02*
D03*
X6650Y14800D02*
D03*
X4950D02*
D03*
X2750Y22800D02*
D03*
X1050D02*
D03*
X3550Y28100D02*
D03*
X1850D02*
D03*
X950Y20200D02*
D03*
X2650D02*
D03*
D33*
X6200Y12950D02*
D03*
Y11250D02*
D03*
D34*
X2750Y24070D02*
D03*
X850D02*
D03*
X1800Y26700D02*
D03*
X850D02*
D03*
D35*
X2750D02*
D03*
D36*
X950Y21500D02*
D03*
X2650D02*
D03*
D37*
X17105Y17995D02*
X17300Y17800D01*
X3382Y17995D02*
X17105D01*
X1800Y19577D02*
X3382Y17995D01*
X1800Y19577D02*
Y20800D01*
X2300Y21300D01*
X2450D01*
X2650Y21500D01*
X2750Y22800D02*
X2750Y22800D01*
X2674Y22724D02*
X2750Y22800D01*
X2674Y21524D02*
Y22724D01*
X2650Y21500D02*
X2674Y21524D01*
X2750Y22800D02*
Y24070D01*
X6650Y14750D02*
Y14800D01*
X6200Y14300D02*
X6650Y14750D01*
X6200Y12950D02*
Y14300D01*
Y11250D02*
X6400Y11050D01*
X7750D01*
X14800Y14900D02*
X14800Y14900D01*
X16150D01*
X7850Y6400D02*
X7850Y6400D01*
X9200D01*
X7850Y6400D02*
Y6450D01*
D38*
X9200Y7300D02*
X9200Y7300D01*
X9200Y6400D02*
Y7300D01*
D39*
X22160Y11410D02*
D03*
X24700Y10140D02*
D03*
X22160Y8870D02*
D03*
X24700Y7600D02*
D03*
X3840Y7590D02*
D03*
X1300Y8860D02*
D03*
X3840Y10130D02*
D03*
X1300Y11400D02*
D03*
X6410Y3840D02*
D03*
X5140Y1300D02*
D03*
X3870Y3840D02*
D03*
X2600Y1300D02*
D03*
X15010Y3840D02*
D03*
X13740Y1300D02*
D03*
X12470Y3840D02*
D03*
X11200Y1300D02*
D03*
X23610Y3840D02*
D03*
X22340Y1300D02*
D03*
X21070Y3840D02*
D03*
X19800Y1300D02*
D03*
D40*
X2000Y16000D02*
D03*
X24000D02*
D03*
D41*
X3000Y19800D02*
D03*
X3900Y21300D02*
D03*
X17300Y17800D02*
D03*
X20400Y9100D02*
D03*
X18100Y7400D02*
D03*
X2900Y27000D02*
D03*
X3900D02*
D03*
X4900D02*
D03*
Y25600D02*
D03*
X3900D02*
D03*
X3400Y26300D02*
D03*
X4400D02*
D03*
X18100Y27000D02*
D03*
X19100D02*
D03*
X20100D02*
D03*
X21100D02*
D03*
Y25600D02*
D03*
X20100D02*
D03*
X19100D02*
D03*
X18100D02*
D03*
X18600Y26300D02*
D03*
X19600D02*
D03*
X20600D02*
D03*
X12500D02*
D03*
X11500D02*
D03*
X10500D02*
D03*
X10000Y25600D02*
D03*
X11000D02*
D03*
X12000D02*
D03*
X13000D02*
D03*
Y27000D02*
D03*
X12000D02*
D03*
X11000D02*
D03*
X10000D02*
D03*
X9200Y7300D02*
D03*
X17100Y2800D02*
D03*
X1800Y24100D02*
D03*
X5100Y6400D02*
D03*
X5500Y5400D02*
D03*
X18800Y14900D02*
D03*
X17400Y13400D02*
D03*
X11000Y4000D02*
D03*
X16500Y4300D02*
D03*
X12400Y2500D02*
D03*
X10700Y11600D02*
D03*
X11700Y10600D02*
D03*
X20200Y12000D02*
D03*
X19400Y12900D02*
D03*
X13600Y10100D02*
D03*
X1800Y29200D02*
D03*
X3800D02*
D03*
X2800D02*
D03*
X800D02*
D03*
Y30200D02*
D03*
X1800D02*
D03*
X2800D02*
D03*
X3800D02*
D03*
Y31200D02*
D03*
X2800D02*
D03*
X1800D02*
D03*
X800D02*
D03*
X16300Y14700D02*
D03*
X14200Y7500D02*
D03*
X12400Y8000D02*
D03*
X13231Y14050D02*
D03*
X14100Y14019D02*
D03*
X12431Y14031D02*
D03*
X11600Y14100D02*
D03*
X15200Y10100D02*
D03*
X14500Y10600D02*
D03*
X8950D02*
D03*
X17400Y23400D02*
D03*
X16800Y24300D02*
D03*
Y22500D02*
D03*
X9300Y23400D02*
D03*
X8700Y24300D02*
D03*
Y22500D02*
D03*
X4500Y23400D02*
D03*
X5100Y24300D02*
D03*
Y22500D02*
D03*
X12600Y23400D02*
D03*
X13200Y24300D02*
D03*
Y22500D02*
D03*
X20700Y23400D02*
D03*
X21300Y24300D02*
D03*
Y22500D02*
D03*
X24900D02*
D03*
Y24300D02*
D03*
X25400Y23400D02*
D03*
X23100Y23400D02*
D03*
X24300Y23400D02*
D03*
X22500Y22500D02*
D03*
Y24300D02*
D03*
X23700D02*
D03*
Y22500D02*
D03*
X21900Y23400D02*
D03*
X15000D02*
D03*
X16200Y23400D02*
D03*
X14400Y22500D02*
D03*
Y24300D02*
D03*
X15600D02*
D03*
Y22500D02*
D03*
X13800Y23400D02*
D03*
X5700Y23400D02*
D03*
X7500Y22500D02*
D03*
Y24300D02*
D03*
X6300D02*
D03*
Y22500D02*
D03*
X8100Y23400D02*
D03*
X6900Y23400D02*
D03*
M02*
