G04*
G04 #@! TF.GenerationSoftware,Altium Limited,Altium Designer,19.1.8 (144)*
G04*
G04 Layer_Color=32896*
%FSLAX43Y43*%
%MOMM*%
G71*
G01*
G75*
%ADD10C,0.200*%
%ADD11C,0.127*%
%ADD67C,0.254*%
D10*
X2800Y18700D02*
G03*
X2800Y18700I-1000J0D01*
G01*
X9052Y6825D02*
G03*
X8577Y6825I-237J0D01*
G01*
X8835D01*
X8795D02*
X9052D01*
D11*
X9648Y11006D02*
X9952D01*
X9648Y10194D02*
X9952D01*
X12424Y8022D02*
X13376D01*
X12424Y8378D02*
X13376D01*
X13924D02*
X14876D01*
X13924Y8022D02*
X14876D01*
X10924D02*
X11876D01*
X10924Y8378D02*
X11876D01*
X5624Y8022D02*
X6576D01*
X5624Y8378D02*
X6576D01*
X3324Y25222D02*
X4276D01*
X3324Y25578D02*
X4276D01*
X11524Y25222D02*
X12476D01*
X11524Y25578D02*
X12476D01*
X19624Y25222D02*
X20576D01*
X19624Y25578D02*
X20576D01*
X18478Y16924D02*
Y17876D01*
X18122Y16924D02*
Y17876D01*
X18678Y11524D02*
Y12476D01*
X18322Y11524D02*
Y12476D01*
X1124Y26100D02*
X2876D01*
X1124Y25300D02*
X2876D01*
X9524Y25000D02*
X11276D01*
X9524Y24200D02*
X11276D01*
X17624Y25000D02*
X19376D01*
X17624Y24200D02*
X19376D01*
D67*
X25900Y20500D02*
G03*
X25900Y20500I-100J0D01*
G01*
X17800Y20500D02*
G03*
X17800Y20500I-100J0D01*
G01*
X9700Y20500D02*
G03*
X9700Y20500I-100J0D01*
G01*
X3800Y27300D02*
Y28300D01*
X3300Y27800D02*
X4300D01*
X1800Y18200D02*
Y19200D01*
M02*
